<?xml version="1.0" standalone="no"?>
<!DOCTYPE svg PUBLIC "-//W3C//DTD SVG 1.1//EN" "http://www.w3.org/Graphics/SVG/1.1/DTD/svg11.dtd" >
<svg xmlns="http://www.w3.org/2000/svg">
<metadata>
This is a custom SVG font generated by IcoMoon.
<iconset grid="14"></iconset>
</metadata>
<defs>
<font id="icomoon" horiz-adv-x="448" >
<font-face units-per-em="448" ascent="384" descent="-64" />
<missing-glyph horiz-adv-x="448" />
<glyph class="hidden" unicode="&#xf000;" d="M0,384L 448 -64L0 -64 z" horiz-adv-x="0" />
<glyph unicode="&#xe000;" d="M 28,300L 420,300L 420,216L 28,216zM 28,188L 420,188L 420,104L 28,104zM 28,76L 420,76L 420-8L 28-8z"  />
<glyph unicode="&#xe001;" d="M 518.064,196.608c0,99.693-114.853,180.491-256.527,180.491c-141.66,0-256.474-80.797-256.474-180.491
c0-70.399, 57.298-131.131, 140.786-160.977c 3.9-20.309-2-56.917-59.482-109.071c0,0, 122.265,33.26, 192.691,90.15
C 412.538,23.128, 518.064,101.058, 518.064,196.608z" horiz-adv-x="513"  />
<glyph unicode="&#xe002;" d="M 268.8,345.651c-102.529,0-185.651-83.122-185.651-185.66c0-102.529, 83.122-185.651, 185.651-185.651s 185.66,83.113, 185.66,185.651
	C 454.46,262.529, 371.329,345.651, 268.8,345.651z M 274.212,69.468c-34.55-3.566-66.644,13.108-87.091,52.568l-0.179,0.349l 29.81,13.754
	c 9.453-20.581, 29.219-33.044, 50.149-34.191c 32.148,0.242, 57.962,25.957, 58.195,57.622c0,32.292-25.921,58.356-57.702,58.589
	c-15.59,0-29.783-5.77-40.687-16.289l 18.332-18.601c 0.941-0.564, 1.586-1.55, 1.586-2.697c0-1.738-1.407-3.127-3.172-3.127
	c0,0-0.072,0-0.099,0l-60.561,0 l-3.136,64.458c0,1.272, 0.824,2.383, 1.971,2.849c 1.111,0.493, 2.482,0.206, 3.36-0.681l 18.628-18.879
	c 16.908,16.406, 39.809,25.751, 63.329,25.751c 0.125,0, 0.206,0.027, 0.412-0.018c 0.027,0, 0.027,0, 0.027,0c 0.054,0, 0.081,0, 0.081,0
	c 0.027,0, 0.027,0, 0.027,0s0,0, 0.054,0c 0.018,0, 0.072,0, 0.161,0c 49.764-0.412, 90.2-41.153, 90.218-90.917
	C 357.612,112.118, 320.678,73.187, 274.212,69.468z" horiz-adv-x="537.6"  />
<glyph unicode="&#xe003;" d="M 261.901,72.192L 261.901,251.302 L 136.207,125.631C 220.909,125.631, 261.901,72.192, 261.901,72.192zM 220.267,331.733C 123.514,331.733, 44.8,253.020, 44.8,156.267S 123.514-19.2, 220.267-19.2S 395.733,59.514, 395.733,156.267S 317.020,331.733, 220.267,331.733z M 220.267-4.267
		C 131.749-4.267, 59.733,67.749, 59.733,156.267C 59.733,244.784, 131.749,316.8, 220.267,316.8C 308.784,316.8, 380.8,244.784, 380.8,156.267C 380.8,67.749, 308.784-4.267, 220.267-4.267z"  />
<glyph unicode="&#xe004;" d="M 443.041,337.408L 81.747,337.408 C 74.65,337.408, 68.853,331.638, 68.853,324.515l0-23.744 l0-237.789 l0-76.572 c0-7.123, 5.797-12.92, 12.893-12.92l 361.294,0 
	c 7.105,0, 12.876,5.788, 12.876,12.92L 455.916,324.515 C 455.916,331.62, 450.164,337.408, 443.041,337.408z M 352.589,52.166l-89.69,89.734L 173.219,52.166
	l-12.678,12.669l 89.69,89.734l-89.69,89.725l 12.669,12.669l 89.681-89.725l 83.704,83.749l 12.669-12.669l-83.704-83.758l 89.69-89.734
	L 352.589,52.166z" horiz-adv-x="537.6"  />
<glyph unicode="&#xe005;" d="M 148.75,144q0-3.25 -2.5-5.75l-116.5-116.5q-2.5-2.5 -5.75-2.5t-5.75,2.5l-12.5,12.5q-2.5,2.5 -2.5,5.75t 2.5,5.75l 98.25,98.25l-98.25,98.25q-2.5,2.5 -2.5,5.75t 2.5,5.75l 12.5,12.5q 2.5,2.5 5.75,2.5t 5.75-2.5l 116.5-116.5q 2.5-2.5 2.5-5.75z" horiz-adv-x="160"  />
<glyph unicode="&#xe006;" d="M 448.34,340.652L 88.086,340.652 c-7.087,0-12.849-5.761-12.849-12.858l0-23.681 l0-236.992 l 0.009,0 l0-76.321 c0-7.105, 5.761-12.876, 12.849-12.876l 360.255,0 
	c 7.087,0, 12.858,5.77, 12.858,12.876L 461.207,327.794 C 461.198,334.89, 455.437,340.652, 448.34,340.652z M 368.444,144.401l-88.803,0.009l0-88.803 l-17.92,0 l0,88.803 
	l-88.794,0.009l0,17.92 l 88.794-0.009l0,82.719 l 17.92,0 l0-82.719 l 88.803-0.009L 368.444,144.401 z" horiz-adv-x="537.6"  />
<glyph unicode="&#xe007;" d="M 419.068,248.14l-0.027,0.045c-73.508-72.89-186.162-181.126-186.162-181.126c-4.265-4.292-11.263-4.292-15.555,0L 119.446,165.564
	l 39.012,38.949l 66.761-67.209L 434.927,292.581l 0.027,0.018L 434.954,324.55 c0,7.105-5.77,12.867-12.858,12.867L 61.851,337.417 C 54.764,337.408, 49.011,331.656, 49.011,324.55
	l0-23.681 l0-237.001 l0-76.33 c0-7.105, 5.761-12.858, 12.849-12.858l 360.246,0 c 7.087,0, 12.858,5.752, 12.858,12.858L 434.963,264.008 
	c-0.009-0.009-0.018-0.018-0.027-0.027C 429.892,258.945, 424.65,253.704, 419.068,248.14z" horiz-adv-x="537.6"  />
<glyph unicode="&#xe008;" d="M 387.359,373.248L 26.065,373.248 C 18.968,373.248, 13.171,367.478, 13.171,360.355l0-23.744 l0-237.789 l0-76.572 c0-7.123, 5.797-12.92, 12.893-12.92l 361.294,0 
	c 7.105,0, 12.876,5.788, 12.876,12.92L 400.234,360.355 C 400.234,367.46, 394.482,373.248, 387.359,373.248z M 303.242,177.848L 111.194,177.848 l0,26.88 l 192.049,0 L 303.242,177.848 z" horiz-adv-x="537.6"  />
<glyph unicode="&#xe009;" d="M 320.463,201.324c 47.649,47.631, 75.183,75.165, 92.154,92.154c 45.239,45.239-11.711,1.693-11.711,1.693l-93.202-71.286 M 307.704,223.885
	L 126.596,90.488l-66.761,67.209l-39.012-38.949l 97.879-98.506c 4.292-4.292, 11.29-4.292, 15.555,0c0,0, 114.401,109.312, 186.18,181.082" horiz-adv-x="448"  />
<glyph unicode="&#xe00a;" d="M 300.977,242.605l0,14.494 l 15.385,7.032l0,13.45 l-53.795,0 l0-13.45 l 24.902-3.706l0-17.814 l-150.223,0 l 8.341,26.034
c 3.282,8.41, 6.747,8.41, 8.398,8.41l 31.839,0 l0,13.45 l-31.839,0 c-9.568,0-16.656-5.786-21.039-17.232l-25.629-80.075
c-6.33,1.499-12.919,2.308-19.749,2.308c-47.458,0-86.032-38.574-86.032-86.032s 38.574-86.032, 86.032-86.032
c 47.465,0, 86.032,38.574, 86.032,86.032c0,35.918-22.145,66.783-53.516,79.633l 5.577,17.491l 106.419-106.419l 6.893,0.221l 29.36,0 
c 3.44-44.335, 40.553-79.304, 85.76-79.304c 47.458,0, 86.039,38.574, 86.039,86.032c0,47.458-38.574,86.032-86.039,86.032
c-10.592,0-20.741-1.922-30.107-5.451l-22.423,48.122 M 160.22,109.475c0-40.041-32.56-72.582-72.582-72.582S 15.037,69.421, 15.037,109.475
s 32.56,72.582, 72.582,72.582c 5.369,0, 10.573-0.651, 15.594-1.714l-22.057-68.8l 12.837-4.091l 22.057,68.838
C 142.009,165.154, 160.22,139.391, 160.22,109.475z M 232.695,118.72L 130.405,221.016l 2.599,8.113l 150.729,0 L 232.695,118.72z M 294.255,219.884
l 17.617-37.828c-24.251-13.747-41.179-38.915-43.456-68.162l-23.138,0 L 294.255,219.884z M 317.621,169.745l 26.022-55.875l-61.705,0 
C 284.137,137.722, 297.935,158.229, 317.621,169.745z M 354.183,34.559c-37.771,0-68.845,28.981-72.278,65.873l 82.826,0 l-34.938,75.042
c 7.652,2.732, 15.809,4.3, 24.396,4.3c 40.041,0, 72.582-32.547, 72.582-72.582S 394.212,34.559, 354.183,34.559z"  />
<glyph unicode="&#xe00b;" d="M 139.101,345.764A35.734,35.734 540 1 1 210.569,345.764A35.734,35.734 540 1 1 139.101,345.764zM 299.933,178.892c-33.938,0-49.213,6.214-61.407,12.427c-13.524,9.504-21.563,20.992-27.048,43.856c-5.117,24.854-9.497,61.407-57.748,61.407
c-49.137,0-78.402-30.7-88.891-46.786l-43.42-70.911c-8.776-25.433, 14.388-38.746, 30.7-25.433l 46.418,81.715
c 7.070,0, 12.795-3.268, 12.795-7.311L 85.749,129.92c-1.57-4.478-1.15-8.317, 0.774-11.571L 85.749,118.605l0-66.561 L 5.934-31.888
c-4.478-4.703-4.29-12.142, 0.413-16.605l 14.23-13.532c 4.703-4.478, 12.134-4.29, 16.612,0.421l 86.569,91.032
c 5.793,10.068, 3.569,15.793, 3.238,20.136l0,55.336 l-0.053,0.015c 9.061-0.113, 18.648,0.729, 27.777,2.509l 40.685-46.47l0-114.474 
c0-6.484, 5.259-11.743, 11.751-11.743l 19.632,0 c 6.492,0, 11.743,5.259, 11.743,11.743l0,125.624 c0,0.173-0.038,0.331-0.045,0.496
c 0.015,2.547-0.744,5.109-2.427,7.273l-56.613,64.668l 2.802,60.648c0,2.021, 2.938,3.659, 6.574,3.659c0-30.625, 22.247-45.253, 52.639-55.404
l 58.484-5.252C 321.864,148.215, 315.305,181.161, 299.933,178.892z" horiz-adv-x="320"  />
<glyph unicode="&#xe00c;" d="M 325.164,20.168l 37.291,0 c 5.988,0, 10.836,4.861, 10.836,10.848L 373.291,305.724 c0,6.001-4.854,10.848-10.836,10.848L 237.685,316.572 L 325.235,363.36
l-2.927,5.469l-91.616-48.959l-91.616,48.959l-2.92-5.469l 87.556-46.788L 101.709,316.572 c-6.001,0-10.848-4.854-10.848-10.848l0-274.707 
c0-5.988, 4.854-10.848, 10.848-10.848l 37.278,0 l-48.133-71.328l 33.929,0 l 14.204,24.374l 186.171,0 l 14.198-24.374l 33.929,0 L 325.164,20.168z M 230.686,317.34
l 0.416-0.762l-0.826,0 L 230.686,317.34z M 136.559,273.178c0,5.988, 4.861,10.848, 10.855,10.848L 314.783,284.033 c 6.001,0, 10.855-4.867, 10.855-10.848l0-132.045 
c0-6.001-4.861-10.861-10.855-10.861L 147.414,130.272 c-5.994,0-10.855,4.854-10.855,10.861L 136.559,273.178 z M 138.987,47.167c-11.668,0-21.127,9.459-21.127,21.127
s 9.459,21.12, 21.127,21.12c 11.668,0, 21.127-9.452, 21.127-21.12S 150.661,47.167, 138.987,47.167z M 151.282-5.704l 15.062,25.859l 131.455,0 
l 15.062-25.859L 151.282-5.704 z M 304.511,68.293c0,11.668, 9.459,21.12, 21.133,21.12c 11.662,0, 21.12-9.452, 21.12-21.12s-9.459-21.127-21.12-21.127
C 313.97,47.167, 304.511,56.62, 304.511,68.293z"  />
<glyph unicode="&#xe00d;" d="M 470.092,190.577L 421.35,315.855c-2.215,7.556-9.398,16.928-21.017,16.928L 291.168,332.783 L 181.992,332.783 c-11.602,0-18.785-9.372-20.996-16.928
l-48.763-125.294c-3.52-9.44-39.049-18.302-40.612-41.991l0-79.982 l0-63.881 c0-6.314, 5.104-11.429, 11.429-11.429l 38.703,0 
c 6.319,0, 11.429,5.114, 11.429,11.429l0,31.945 l 316,0 l0-31.945 c0-6.314, 5.114-11.429, 11.419-11.429l 38.713,0 c 6.314,0, 11.419,5.114, 11.419,11.429L 510.72,148.586 
C 509.146,172.261, 473.639,181.148, 470.092,190.577z M 168.895,118.235c0-6.314-5.114-11.429-11.429-11.429l-33.403,0 c-6.314,0-11.429,5.114-11.429,11.429
l0,18.938 c0,6.314, 5.114,11.429, 11.429,11.429l 33.403,0 c 6.314,0, 11.429-5.114, 11.429-11.429L 168.895,118.235 z M 135.018,191.456l 45.053,109.739
c 3.316,4.925, 8.093,9.867, 18.086,9.867l 93.012,0 l 93.012,0 c 10.003,0, 14.77-4.925, 18.086-9.867l 45.053-109.739L 291.168,191.456 L 135.018,191.456 z M 469.503,118.235
c0-6.314-5.104-11.429-11.419-11.429l-33.403,0 c-6.314,0-11.429,5.114-11.429,11.429l0,18.938 c0,6.314, 5.114,11.429, 11.429,11.429l 33.403,0 
c 6.319,0, 11.419-5.114, 11.419-11.429L 469.503,118.235 z" horiz-adv-x="579"  />
<glyph unicode="&#xe00e;" d="M 321.144-18.109c0-6.196, 5.035-11.246, 11.246-11.246l 26.733,0 c 6.204,0, 11.246,5.035, 11.246,11.246l0,25.715 l-49.218,0 L 321.144-18.109 zM 423.751,305.688l-33.79,0 l0,20.441 c0,6.204-5.035,11.246-11.246,11.246L 88.169,337.376 c-6.204,0-11.246-5.035-11.246-11.246l0-20.441 l-33.79,0 
c-0.429,0-0.766-1.009-0.766-2.217l0-60.628 c0-1.224, 0.336-2.217, 0.766-2.217l 19.873,0 c 0.429,0, 0.766,1.001, 0.766,2.217l0,49.828 l 13.152,0 
L 76.922,19.118 c0-6.204, 5.035-11.246, 11.246-11.246l 8.446,0 l0-25.715 c0-6.196, 5.035-11.246, 11.246-11.246l 26.733,0 c 6.204,0, 11.246,5.035, 11.246,11.246L 145.84,7.863 l 232.878,0 
c 6.204,0, 11.246,5.035, 11.246,11.246L 389.969,292.675 l 13.16,0 l0-49.828 c0-1.224, 0.336-2.217, 0.766-2.217l 19.865,0 c 0.429,0, 0.766,1.001, 0.766,2.217l0,60.628 
C 424.517,304.688, 424.18,305.688, 423.751,305.688z M 165.781,61.383c0-0.665-0.976-1.182-2.162-1.182l-55.948,0 
c-1.19,0-2.153,0.543-2.153,1.182L 105.51,93.883 c0,0.665, 0.976,1.19, 2.153,1.19l 55.948,0 c 1.199,0, 2.162-0.543, 2.162-1.19L 165.781,61.383 z
M 359.54,61.383c0-0.665-0.976-1.182-2.162-1.182l-55.956,0 c-1.182,0-2.153,0.543-2.153,1.182L 299.269,93.883 c0,0.665, 0.976,1.19, 2.153,1.19
l 55.956,0 c 1.199,0, 2.162-0.543, 2.162-1.19L 359.54,61.383 z M 359.54,141.039c0-3.171-4.084-5.733-9.118-5.733L 114.619,135.307 
c-5.035,0-9.118,2.561-9.118,5.733L 105.501,273.156 l 254.043,0 L 359.54,141.039 z M 359.54,286.61L 105.493,286.61 l0,10.961 c0,3.171, 4.084,5.733, 9.118,5.733L 350.412,303.313 
c 5.035,0, 9.118-2.561, 9.118-5.733L 359.531,286.61 z" horiz-adv-x="466"  />
<glyph unicode="&#xe00f;" d="M 128,200l0-144 q0-3.5 -2.25-5.75t-5.75-2.25l-16,0 q-3.5,0 -5.75,2.25t-2.25,5.75l0,144 q0,3.5 2.25,5.75t 5.75,2.25l 16,0 q 3.5,0 5.75-2.25t 2.25-5.75zM 192,200l0-144 q0-3.5 -2.25-5.75t-5.75-2.25l-16,0 q-3.5,0 -5.75,2.25t-2.25,5.75l0,144 q0,3.5 2.25,5.75t 5.75,2.25l 16,0 q 3.5,0 5.75-2.25t 2.25-5.75zM 256,200l0-144 q0-3.5 -2.25-5.75t-5.75-2.25l-16,0 q-3.5,0 -5.75,2.25t-2.25,5.75l0,144  q0,3.5 2.25,5.75t 5.75,2.25l 16,0 q 3.5,0 5.75-2.25t 2.25-5.75zM 288,19l0,237 l-224,0 l0-237 q0-5.5 1.75-10.125t 3.625-6.75t 2.625-2.125l 208,0 q 0.75,0 2.625,2.125t 3.625,6.75t 1.75,10.125zM 120,288l 112,0 l-12,29.25q-1.75,2.25 -4.25,2.75l-79.25,0 q-2.5-0.5 -4.25-2.75zM 352,280l0-16 q0-3.5 -2.25-5.75t-5.75-2.25l-24,0 l0-237 q0-20.75 -11.75-35.875t-28.25-15.125l-208,0  q-16.5,0 -28.25,14.625t-11.75,35.375l0,238 l-24,0 q-3.5,0 -5.75,2.25t-2.25,5.75l0,16 q0,3.5 2.25,5.75t 5.75,2.25l 77.25,0 l 17.5,41.75q 3.75,9.25 13.5,15.75t 19.75,6.5l 80,0 q 10,0 19.75-6.5t 13.5-15.75l 17.5-41.75l 77.25,0 q 3.5,0 5.75-2.25t 2.25-5.75z" horiz-adv-x="352"  />
<glyph unicode="&#xe010;" d="M 156.75,248q0-3.25 -2.5-5.75l-98.25-98.25l 98.25-98.25q 2.5-2.5 2.5-5.75t-2.5-5.75l-12.5-12.5q-2.5-2.5 -5.75-2.5t-5.75,2.5l-116.5,116.5q-2.5,2.5 -2.5,5.75t 2.5,5.75l 116.5,116.5q 2.5,2.5 5.75,2.5t 5.75-2.5l 12.5-12.5q 2.5-2.5 2.5-5.75z" horiz-adv-x="160"  />
<glyph unicode="&#xe011;" d="M 459.039,346.368L 97.745,346.368 C 85.693,346.368, 75.891,336.566, 75.891,324.515l0-338.106 c0-12.069, 9.802-21.88, 21.853-21.88l 361.294,0 
		c 12.042,0, 21.836,9.82, 21.836,21.88L 480.874,324.515 C 480.874,336.566, 471.081,346.368, 459.039,346.368z M 462.954-13.591c0-2.186-1.756-3.96-3.916-3.96
		L 97.745-17.551 c-2.168,0-3.933,1.774-3.933,3.96L 93.811,324.515 C 93.811,326.683, 95.576,328.448, 97.745,328.448l 361.294,0 c 2.15,0, 3.916-1.765, 3.916-3.933L 462.954-13.591 zM 375.272,238.319L 362.602,250.989L 278.889,167.249L 189.208,256.965L 176.539,244.296L 266.228,154.57L 176.539,64.836L 189.217,52.166L 278.898,141.892L 368.588,52.166L 381.257,64.836L 291.567,154.57 	z" horiz-adv-x="537.6"  />
<glyph unicode="&#xe012;" d="M 268.509,345.444C 166.085,345.444, 83.056,262.415, 83.056,159.982c0-102.424, 83.029-185.426, 185.453-185.426
c 102.406,0, 185.444,82.993, 185.444,185.426C 453.953,262.415, 370.915,345.444, 268.509,345.444z M 268.509,1.46c-87.423,0-158.514,71.126-158.514,158.523
c0,87.432, 71.099,158.523, 158.514,158.523c 87.405,0, 158.496-71.090, 158.496-158.523C 427.005,72.586, 355.914,1.46, 268.509,1.46zM 267.408,250.825c-0.090,0-0.143,0-0.161,0c-0.054,0-0.054,0-0.054,0s0,0-0.027,0c0,0-0.027,0-0.081,0l0,0
c0,0,0,0-0.027,0c-0.206,0.045-0.287,0.018-0.412,0.018c-23.494,0-46.37-9.335-63.258-25.722l-18.607,18.858
c-0.877,0.886-2.246,1.173-3.356,0.68c-1.146-0.465-1.969-1.575-1.969-2.846l 3.132-64.386l 60.493,0 c 0.027,0, 0.099,0, 0.099,0
c 1.763,0, 3.168,1.387, 3.168,3.124c0,1.146-0.644,2.13-1.584,2.694l-18.312,18.58c 10.892,10.507, 25.069,16.271, 40.642,16.271
c 31.746-0.233, 57.638-26.269, 57.638-58.524c-0.233-31.621-26.018-57.307-58.13-57.549c-20.908,1.146-40.651,13.595-50.093,34.153l-29.777-13.739
l 0.179-0.358c 20.415-39.407, 52.473-56.071, 86.985-52.5c 46.424,3.705, 83.316,42.593, 83.629,90.431C 357.517,209.717, 317.108,250.413, 267.408,250.825z" horiz-adv-x="537"  />
<glyph unicode="&#xe013;" d="M 456.028,345.768L 95.773,345.768 c-12.024,0-21.809-9.784-21.809-21.818l 0.009-336.986c0-12.042, 9.784-21.836, 21.809-21.836l 360.255,0 
		c 12.033,0, 21.818,9.793, 21.818,21.836L 477.855,323.95 C 477.846,335.983, 468.061,345.768, 456.028,345.768z M 459.926-13.036c0-2.15-1.747-3.916-3.898-3.916
		L 95.782-16.951 c-2.141,0-3.889,1.756-3.889,3.916L 91.885,323.95c0,2.15, 1.747,3.898, 3.889,3.898l 360.264,0 c 2.141,0, 3.898-1.747, 3.898-3.898
		L 459.935-13.036 zM 287.329,241.204L 269.409,241.204L 269.409,158.486L 180.616,158.495L 180.616,140.575L 269.409,140.566L 269.409,51.763L 287.329,51.763L 287.329,140.566L 376.132,140.557L 376.132,158.477L 287.329,158.486 	z" horiz-adv-x="537.6"  />
<glyph unicode="&#xe014;" d="M 220.267,324.267C 127.486,324.267, 52.267,249.047, 52.267,156.267C 52.267,63.478, 127.486-11.733, 220.267-11.733C 313.055-11.733, 388.267,63.478, 388.267,156.267C 388.267,249.047, 313.055,324.267, 220.267,324.267z
	 M 261.901,72.192c0,0-40.992,53.439-125.694,53.439l 125.694,125.671L 261.901,72.192 z"  />
<glyph unicode="&#xe015;" d="M 499.529,341.987l-55.615-42.533L 443.914,324.55 c0,12.033-9.784,21.827-21.818,21.827L 61.833,346.377 C 49.827,346.359, 40.051,336.575, 40.051,324.55l0-337.004 
		c0-12.033, 9.784-21.818, 21.809-21.818l 360.246,0 c 12.033,0, 21.818,9.784, 21.818,21.818L 443.923,272.968 c 32.677,32.668, 53.572,53.572, 67.316,67.325
		C 556.461,385.532, 499.529,341.987, 499.529,341.987z M 425.994-12.453c0-2.141-1.747-3.898-3.898-3.898L 61.86-16.351 c-2.141,0-3.889,1.747-3.889,3.898
		L 57.971,324.55 c0,2.15, 1.747,3.898, 3.88,3.907l 360.255,0 c 2.141,0, 3.898-1.747, 3.898-3.907l0-38.806 l-19.676-15.053l 12.759-22.561
		c 2.428,2.428, 4.596,4.588, 6.917,6.917L 426.003-12.453 zM 158.458,204.513l-39.012-38.949l 97.879-98.506c 4.292-4.292, 11.29-4.292, 15.555,0c0,0, 114.401,109.303, 186.171,181.082l-12.741,22.561
		L 225.219,137.304L 158.458,204.513z" horiz-adv-x="537.6"  />
<glyph unicode="&#xe016;" d="M 417.175,2.043L 230.807,328.747c-1.63,2.053-4.119,3.298-6.782,3.298c-2.638,0-5.164-1.244-6.869-3.298
	L 30.8,2.043c-1.195-1.605-1.867-3.497-1.867-5.376l 0.846-3.82c 1.444-2.987, 4.517-4.891, 7.79-4.891l 372.823,0 
	c 3.335,0, 6.396,1.892, 7.778,4.891C 419.689-4.13, 419.228-0.633, 417.175,2.043z M 205.172,210.437l 37.906,0 l0-122.068 l-37.906,0 L 205.172,210.437 z
	 M 223.9,20.411c-12.258,0-19.737,8.238-19.986,18.953c0,10.503, 7.728,19.003, 20.484,19.003c 11.922,0, 19.7-8.512, 19.7-19.003
	C 244.085,28.649, 236.108,20.411, 223.9,20.411z"  />
<glyph unicode="&#xe017;" d="M 422.588,14.188L 235.673,341.676c-5.637,7.106-16.738,8.126-23.918-0.784L 25.81,14.823
		c-2.004-2.688-3.111-5.911-3.111-9.084l 1.008-5.164l 0.473-1.356c 2.464-5.102, 7.728-8.4, 13.403-8.4l 372.823,0 
		c 5.762,0, 11.038,3.335, 13.34,8.325C 426.284,4.208, 425.662,10.256, 422.588,14.188z M 412.521,4.532
		c-0.348-0.772-1.207-1.282-2.128-1.282L 37.582,3.25 c-0.747,0-1.481,0.361-1.929,0.946l-0.436,1.954c 0.112,0.436, 0.398,0.996, 0.996,1.854
		L 221.934,333.824c 0.548,0.66, 1.332,1.058, 2.091,1.058c 0.709,0, 1.419-0.348, 1.369-0.149l 186.828-327.413
		C 412.533,6.921, 413.193,5.863, 412.521,4.532zM 205.172,219.497L 243.077,219.497L 243.077,97.429L 205.172,97.429zM 224.398,67.438c-12.756,0-20.484-8.512-20.484-19.003c 0.249-10.715, 7.728-18.953, 19.986-18.953
		c 12.196,0, 20.197,8.238, 20.197,18.953C 244.098,58.939, 236.32,67.438, 224.398,67.438z"  />
<glyph unicode="&#xe018;" d="M 226.677,109.701c-29.288,0-53.116,23.828-53.116,53.119c0,29.288, 23.828,53.113, 53.116,53.113c 29.291,0, 53.119-23.828, 53.119-53.113
		l-9.442,0 c0,24.080-19.594,43.672-43.677,43.672c-24.083,0-43.674-19.592-43.674-43.672c0-24.083, 19.592-43.677, 43.674-43.677
		c 9.041,0, 17.724,2.75, 25.113,7.952l 5.435-7.72C 248.237,113.047, 237.672,109.701, 226.677,109.701zM 221.147,162.82A5.53,5.53 180 1 1 232.207,162.82A5.53,5.53 180 1 1 221.147,162.82zM 226.677,73.371c-49.322,0-89.446,40.127-89.446,89.449c0,49.322, 40.127,89.446, 89.446,89.446
		c 49.325,0, 89.449-40.127, 89.449-89.446l-6.294,0 c0,45.85-37.302,83.152-83.157,83.152S 143.525,208.67, 143.525,162.82
		s 37.302-83.157, 83.152-83.157c 26.396,0, 50.638,12.118, 66.514,33.247l 5.034-3.78C 281.148,86.405, 255.072,73.371, 226.677,73.371zM 226.677,26.812c-74.992,0-136.004,61.015-136.004,136.007s 61.012,136.004, 136.004,136.004s 136.007-61.012, 136.007-136.004l-3.147,0 
		c0,73.259-59.598,132.857-132.86,132.857c-73.259,0-132.857-59.598-132.857-132.857c0-73.259, 59.598-132.86, 132.857-132.86
		c 47.827,0, 92.176,25.894, 115.735,67.589l 2.741-1.548C 321.031,53.326, 275.638,26.812, 226.677,26.812zM 226.685,165.944L 429.22,165.944L 429.22,159.65L 226.685,159.65zM 226.677-40.402c-112.056,0-203.221,91.165-203.221,203.221c0,112.056, 91.165,203.221, 203.221,203.221
		c 112.056,0, 203.221-91.165, 203.221-203.221l-3.147,0 c0,110.323-89.751,200.074-200.074,200.074S 26.603,273.14, 26.603,162.82
		s 89.751-200.074, 200.074-200.074c 72.022,0, 138.804,39.001, 174.292,101.783l 2.741-1.548C 367.668-0.79, 299.832-40.402, 226.677-40.402z"  />
<glyph unicode="&#xe019;" d="M 387.359,382.208L 26.065,382.208 C 14.013,382.208, 4.211,372.406, 4.211,360.355l0-338.106 c0-12.069, 9.802-21.88, 21.853-21.88l 361.294,0 
		c 12.042,0, 21.836,9.82, 21.836,21.88L 409.194,360.355 C 409.194,372.406, 399.401,382.208, 387.359,382.208z M 391.274,22.249c0-2.186-1.756-3.96-3.916-3.96
		L 26.065,18.289 c-2.168,0-3.933,1.774-3.933,3.96L 22.131,360.355 C 22.131,362.523, 23.896,364.288, 26.065,364.288l 361.294,0 c 2.15,0, 3.916-1.765, 3.916-3.933L 391.274,22.249 zM 111.194,204.728L 303.242,204.728L 303.242,177.848L 111.194,177.848z" horiz-adv-x="537.6"  />
<glyph unicode="&#x20;" horiz-adv-x="224" />
</font>
</defs>
</svg>
